<?xml version="1.0" encoding="utf-8" ?><svg xmlns="http://www.w3.org/2000/svg" xmlns:xlink="http://www.w3.org/1999/xlink" width="4096" height="4096" viewBox="0 0 4096 4096"><path fill="#282C31" d="M955.122 3577.34C837.944 3565.25 717.67 3499.5 639.945 3411.3C578.211 3342.37 537.145 3257.44 521.453 3166.24C511.449 3106.33 512.178 3050.34 512.107 2990.08L512.048 2835.07L511.898 2299.62L511.712 1447.66L511.997 1167.47C512.195 1079.17 508.354 987.053 527.238 900.505C549.222 799.755 607.517 705.709 685.056 638.008C756.065 575.081 843.65 533.867 937.4 519.267C983.019 512.195 1035.84 513.208 1082.07 513.335L1242.62 513.763L1798.04 513.907L2664.26 513.887L2938.46 513.424C2995.18 513.317 3060.09 511.81 3116.18 515.769C3248.13 525.093 3371.02 586.285 3457.99 685.964C3537.72 777.943 3588.91 908.652 3580.3 1031.26C3583.23 1074.84 3581.13 1143.45 3581.1 1188.93L3581.76 2565.15L3581.86 2920.33C3581.95 2995.15 3585.43 3094.61 3573.16 3166.76C3555.46 3270.78 3506.63 3358.84 3432.92 3433.83C3361.08 3506.91 3245.86 3567.61 3142.72 3577.52C3118.52 3582.3 3053.87 3581.5 3027.52 3581.52L2843.76 3581.45L2187.16 3581.58L1339.55 3581.67L1095.49 3581.66C1058.65 3581.59 989.094 3583.15 955.122 3577.34Z"/><path fill="#1A1C21" d="M955.122 3577.34C967.211 3573.6 986.588 3575.57 999.933 3575.17C1170.76 3569.93 1342.99 3571.84 1513.82 3571.87L3023.7 3572.5C3039.41 3572.65 3134.04 3574.06 3142.72 3577.52C3118.52 3582.3 3053.87 3581.5 3027.52 3581.52L2843.76 3581.45L2187.16 3581.58L1339.55 3581.67L1095.49 3581.66C1058.65 3581.59 989.094 3583.15 955.122 3577.34Z"/><path fill="#1A1C21" d="M3580.3 1031.26C3583.23 1074.84 3581.13 1143.45 3581.1 1188.93C3578.91 1202.45 3579.62 1231.51 3579.62 1245.93L3579.72 1344.95L3580.1 1707.79L3579.82 2994.86L3578.25 2995.65C3576.28 2987.36 3577 2950.83 3577 2940.02L3576.98 2830.01L3577.64 2344.51L3572.48 1483.47L3571.89 1265.7C3571.84 1247.44 3570.56 1181.09 3572.95 1167.58L3576.25 1166.94C3582.77 1153.49 3571 1050.98 3580.3 1031.26Z"/><path fill="#EDF0F9" d="M1107.62 1063.5C1149.71 1055.34 1195.33 1044.49 1237.23 1038.02C1378.82 1015.46 1523.41 1019.96 1663.32 1051.3C1715 1063.25 1771.97 1078.81 1815.8 1109.28C1879.94 1153.87 1929.16 1216.8 1963.59 1286.42C1967.57 1294.46 1987.54 1336.65 1990.5 1340.02C1999.93 1325.5 1988.72 1207.78 1990.75 1185.07C1991.85 1184.58 1992.95 1184.08 1994.05 1183.59C2034.05 1194.42 2185.32 1318.58 2218.94 1353.73C2232.24 1367.63 2243.73 1383.15 2253.16 1399.92C2301.02 1484.34 2294.65 1589.32 2279.48 1681.78C2277.88 1691.51 2270.87 1723.27 2272.58 1729.17C2304.39 1720.44 2356.14 1568.48 2365.77 1531.42C2384.42 1564.22 2406.5 1604.97 2419.79 1640.21C2493.35 1835.35 2459.79 2005.89 2353.4 2179.21C2378.33 2258.25 2401.78 2333.17 2419.49 2414.45C2472 2373.11 2534.3 2335.07 2584.58 2292.83C2571.31 2334.39 2559.43 2388.23 2548.41 2431.59L2484.74 2679.59C2482.38 2688.67 2474.76 2725.99 2470.97 2729.85C2466.39 2728 2466.58 2728.22 2462.37 2725.63L2461.33 2727.09L2461.15 2730.49L2458.61 2731C2445.62 2723.64 2429.68 2708.67 2417.58 2698.73L2360.5 2652.75L2154.77 2491.02C2139.89 2479.29 2132.9 2476.96 2130.9 2460.34C2130.98 2458.59 2130.81 2459.87 2132.68 2456.89C2154.43 2453.33 2185.21 2454.13 2208.1 2453.1C2248.14 2451.11 2288.16 2448.7 2328.16 2445.87C2313.58 2375.55 2295.11 2315.33 2275.38 2246.91C2240.18 2124.82 2198.61 2005.22 2145.95 1889.46C2121.27 1835.2 2093.04 1786.8 2065.19 1734.41C2041.95 1698.17 2017.5 1662.64 1994.77 1626.97L1992.64 1624.69C1974.62 1605.04 1948.95 1565.38 1928.34 1540.63C1853.49 1450.74 1699.97 1308.64 1593.37 1259.31C1652.82 1310.61 1702.77 1353.7 1757.45 1410.78C1909.32 1571.6 2027.68 1761.04 2105.62 1968.06C2140.27 2062.46 2164.75 2157.06 2190.44 2253.96C2009.33 2252.71 1866.86 2230.97 1733.02 2093.94C1701.43 2061.61 1688.05 2044.46 1662.79 2006.06C1767.9 2006.26 1814.59 2004.85 1919.44 1977.43C1823.33 1964.05 1632.14 1935.01 1585.08 1842.31C1546.33 1765.99 1505.94 1633.49 1477.82 1549.3C1531.86 1533.79 1587.13 1533.15 1642.78 1537.81C1616.18 1521.56 1587.75 1508.51 1558.08 1498.94C1533.85 1491.07 1456.03 1473.96 1440.43 1457.07C1404.22 1417.86 1380.82 1351.63 1350.5 1304.66C1282.01 1198.58 1209.95 1135.35 1107.62 1063.5Z"/><path fill="#1A1C21" d="M2130.9 2460.34C2161.57 2482.49 2454.87 2713.81 2462.37 2725.63L2461.33 2727.09L2461.15 2730.49L2458.61 2731C2445.62 2723.64 2429.68 2708.67 2417.58 2698.73L2360.5 2652.75L2154.77 2491.02C2139.89 2479.29 2132.9 2476.96 2130.9 2460.34Z"/><path fill="#FCFCFD" d="M1994.77 1626.97C2001.1 1628.9 2001.58 1630.21 2006.29 1634.86L2011.39 1633.18C2018.71 1646.65 2069.66 1717.7 2069.63 1723.26L2064.82 1722.51C2064.96 1725.82 2065.37 1731.3 2065.19 1734.41C2041.95 1698.17 2017.5 1662.64 1994.77 1626.97Z"/><path fill="#EDF0F9" d="M2866.12 2662.43C2934.74 2662.67 3003.36 2662.51 3071.98 2661.94L3072.15 2836.91C3072.24 2903.41 3081.11 2963.67 3039.42 3020.3C3048.9 3033.2 3037.15 3047.02 3020.37 3039.41C2984.85 3065.21 2960.23 3072.17 2916.37 3072.12C2786.05 3071.97 2655.66 3071.95 2525.34 3071.95L1713.04 3071.95L1332.82 3072.05L1225.05 3072.16C1160.81 3072.32 1114.87 3077.89 1065.55 3028.84C1047.73 3011.17 1035.14 2988.91 1029.2 2964.53C1021.36 2933.1 1023.66 2869.74 1023.71 2834.75L1024.02 2662.14L1228.27 2662.06C1228.15 2674.49 1228.2 2686.93 1228.4 2699.36C1234.63 2690.72 1229.25 2676.98 1233.97 2672.57C1241.01 2684.24 1236.53 2764.81 1234.3 2781.53C1230.63 2809.08 1231.83 2836.23 1232 2864C1287.42 2863.3 1342.16 2859.73 1398.27 2862.98C1383.97 2863.5 1289.11 2862.02 1284.55 2865.46C1656.33 2869.93 2030.66 2863.83 2402.66 2866.24C2555.02 2867.23 2716.75 2862.44 2868.06 2867.09C2862.39 2804.67 2868.17 2727.26 2866.12 2662.43Z"/><path fill="#1A1C21" d="M1228.4 2699.36C1234.63 2690.72 1229.25 2676.98 1233.97 2672.57C1241.01 2684.24 1236.53 2764.81 1234.3 2781.53C1230.63 2809.08 1231.83 2836.23 1232 2864C1287.42 2863.3 1342.16 2859.73 1398.27 2862.98C1383.97 2863.5 1289.11 2862.02 1284.55 2865.46L1229.21 2866.67C1228.23 2813.63 1227.51 2751.84 1228.4 2699.36Z"/><path fill="#1A1C21" d="M3039.42 3020.3C3048.9 3033.2 3037.15 3047.02 3020.37 3039.41L3039.42 3020.3Z"/></svg>